# xmcd
#
# Track frame offsets: 
#        150
#        10320
#        21542
#        30061
#        38174
#        49664
#        59076
#        71334
#        81974
#        94730
#        103145
#        116305
#
# Disc length: 1711 seconds
#
# Revision: 0
# Processed by: cddbd v1.5.2PL0 Copyright (c) Steve Scherf et al.
# Submitted via: ExactAudioCopy v0.99pb4
#
DISCID=9506ad0c
DTITLE=Johnny Cash - With His Hot and Blue Guitar
DYEAR=1957
DGENRE=Country
TTITLE0=Rock Island Line
TTITLE1=I Heard That Lonesome Whistle
TTITLE2=Country Boy
TTITLE3=If The Good Lord's Willing
TTITLE4=Cry, Cry, Cry
TTITLE5=Remember Me, I'm the One Who Love's You
TTITLE6=So Doggone Lonesome
TTITLE7=I Was There When It Happened
TTITLE8=I Walk the Line
TTITLE9=Wreck of the Old '97
TTITLE10=Folsome Prison Blues
TTITLE11=Doin' My Time
EXTD=
EXTT0=
EXTT1=
EXTT2=
EXTT3=
EXTT4=
EXTT5=
EXTT6=
EXTT7=
EXTT8=
EXTT9=
EXTT10=
EXTT11=
PLAYORDER=
